# xmcd
#
# Track frame offsets:
#	150
#	13723
#	30042
#	44069
#	59692
#	71443
#	86031
#	100776
#	117289
#	133328
#	148875
#	162464
#
# Disc length: 2388 seconds
#
# Revision: 2
# Processed by: cddbd v1.5.2PL0 Copyright (c) Steve Scherf et al.
# Submitted via: EasyCDDAExtractor 15.3.0.1
#
DISCID=ad09520c
DTITLE=Lucero - Indispensable
DYEAR=2010
DGENRE=Latin
TTITLE0=Indispensable
TTITLE1=Eres Todo
TTITLE2=Amor Virtual
TTITLE3=Mi Refugio Y Libertad
TTITLE4=Esta Vez La Primera Soy Yo
TTITLE5=Daño Irreparable
TTITLE6=Te Quiero Aunque No Quiera
TTITLE7=Dueña De Tu Amor
TTITLE8=Mucho Mas Que Dos
TTITLE9=Ahora Estoy Sin Ti
TTITLE10=Indispensable (Version Ingles)
TTITLE11=Dueña De Tu Amor (Version Telenovela)
EXTD=
EXTT0=
EXTT1=
EXTT2=
EXTT3=
EXTT4=
EXTT5=
EXTT6=
EXTT7=
EXTT8=
EXTT9=
EXTT10=
EXTT11=
PLAYORDER=
